<?xml version="1.0" encoding="UTF-8" standalone="no"?>
<svg
   width="32"
   height="32"
   viewBox="0 0 32 32"
   version="1.1"
   id="svg4"
   sodipodi:docname="conda_forge_logo_icon_145384.svg"
   inkscape:version="1.1.2 (0a00cf5339, 2022-02-04)"
   xmlns:inkscape="http://www.inkscape.org/namespaces/inkscape"
   xmlns:sodipodi="http://sodipodi.sourceforge.net/DTD/sodipodi-0.dtd"
   xmlns="http://www.w3.org/2000/svg"
   xmlns:svg="http://www.w3.org/2000/svg">
  <defs
     id="defs8" />
  <sodipodi:namedview
     id="namedview6"
     pagecolor="#ffffff"
     bordercolor="#666666"
     borderopacity="1.0"
     inkscape:pageshadow="2"
     inkscape:pageopacity="0.0"
     inkscape:pagecheckerboard="0"
     showgrid="false"
     inkscape:zoom="24.4375"
     inkscape:cx="8.2250639"
     inkscape:cy="16.55243"
     inkscape:window-width="1920"
     inkscape:window-height="946"
     inkscape:window-x="0"
     inkscape:window-y="0"
     inkscape:window-maximized="1"
     inkscape:current-layer="svg4"
     inkscape:snap-grids="true" />
  <path
     d="M10.943 7.823l0.005 0.527h-1.943l0.011 0.875v0.005l-9.011 0.005v0.281l-0.005 1.115 0.027 0.057c0.28 0.619 0.885 1.197 1.676 1.749 0.792 0.547 1.781 1.057 2.86 1.505 2.161 0.885 4.672 1.495 6.677 1.469 0.995-0.016 1.681 0.301 2.156 0.895 0.459 0.568 0.683 1.453 0.697 2.557l-3.505 2.787 0.011 2.532h16.453l-0.005-2.349-3.505-2.959c0.073-2.687 0.943-4.593 2.371-5.875 1.448-1.307 3.479-1.984 5.828-2.156l0.255-0.021 0.005-2.995zM11.511 8.385l19.927 0.005-0.005 1.943c-2.317 0.208-4.391 0.891-5.901 2.251-1.213 1.093-1.911 2.744-2.255 4.708l-2.156 0.005 0.005 0.563 2.047-0.005c-0.036 0.301-0.151 0.536-0.167 0.853l-1.188-0.005-0.005 0.563 1.328 0.005 2.849 2.407h-3.921c-0.964-0.896-2.068-1.484-3.219-1.541-1.089-0.053-2.188 0.432-3.183 1.385l-3.973-0.032 3-2.375v-0.136c0-1.26-0.267-2.291-0.855-3.025-0.527-0.661-1.344-1-2.323-1.052l-0.011-5.989h0.011zM9.573 8.912h1.369l0.011 5.875c-1.849-0.032-4.167-0.541-6.172-1.365-1.052-0.432-2.011-0.932-2.755-1.448-0.735-0.504-1.245-1.036-1.459-1.495v-0.681l8.448-0.005v2.88h0.563v-2.88h0.005l-0.005-0.579v-0.301zM18.823 20.697c1 0.048 2 0.584 2.907 1.439l-0.005 1.484h-5.792l-0.011-1.604c0.943-0.953 1.928-1.365 2.901-1.319zM11.145 22.047l4.215 0.032 0.009 1.541h-4.213zM26.479 22.24l0.005 1.38h-4.197v-1.38z"
     id="path2" />
  <path
     style="fill:#000000;stroke:none;stroke-width:0.0409207"
     d="m 21.831202,21.435877 c -0.6441,-0.552194 -1.463261,-1.00327 -2.160376,-1.189624 -0.340627,-0.09106 -0.481638,-0.106205 -0.990519,-0.1064 -0.529533,-2.05e-4 -0.632821,0.01178 -0.96033,0.111394 -0.664739,0.20219 -1.273207,0.548099 -1.83489,1.043121 l -0.237675,0.209468 -1.092248,-0.0056 c -0.600737,-0.0031 -1.467669,-0.01691 -1.926517,-0.03069 l -0.83427,-0.02505 1.455655,-1.14578 1.455654,-1.14578 0.0027,-0.3355 c 0.0058,-0.727372 -0.166321,-1.604876 -0.424143,-2.162899 -0.47385,-1.025587 -1.229777,-1.570797 -2.406961,-1.736016 l -0.358056,-0.05025 v -3.22851 -3.2285098 h 9.943734 9.943734 v 0.9534335 0.9534333 l -0.460358,0.0506 c -2.403547,0.264165 -4.518391,1.198987 -5.78221,2.555903 -0.877033,0.941639 -1.5285,2.379844 -1.86202,4.110675 l -0.04928,0.255755 h -1.079075 -1.079075 v 0.286445 0.286445 h 1.023018 c 0.56266,0 1.023145,0.01381 1.023301,0.03069 1.64e-4,0.01688 -0.03894,0.201023 -0.08689,0.409207 l -0.08717,0.378517 h -0.588306 -0.588306 v 0.306905 0.306906 h 0.67081 0.67081 l 1.385456,1.171292 c 0.762001,0.644211 1.393129,1.178226 1.402507,1.186701 0.0094,0.0085 -0.846889,0.0146 -1.902814,0.0136 l -1.919863,-0.0018 z"
     id="path47" />
  <path
     style="fill:#000000;stroke-width:0.0409207"
     d="M 9.943734,14.706926 C 6.9001359,14.389836 3.4938631,13.1276 1.5996829,11.614936 1.1932092,11.290332 0.79531169,10.856474 0.65994429,10.590267 0.61479417,10.501477 0.59335038,10.353238 0.59335038,10.129909 V 9.8005115 H 4.7877238 8.9820972 v 1.4526855 1.452685 H 9.2890026 9.5959079 V 10.823529 8.9411765 h 0.6480801 0.64808 l 0.02706,1.6265985 c 0.01488,0.894629 0.02708,2.202046 0.02711,2.905371 l 5.7e-5,1.278772 -0.337596,-0.0054 c -0.185678,-0.003 -0.484911,-0.02079 -0.664962,-0.03955 z"
     id="path160" />
  <path
     style="fill:#000000;stroke-width:0.0409207"
     d="m 11.177644,23.09332 c -0.01471,-0.273611 -0.02675,-0.614276 -0.02675,-0.757034 v -0.25956 l 2.035806,6.27e-4 c 1.119693,3.45e-4 2.056136,0.01416 2.080984,0.03069 0.02822,0.01878 0.05589,0.302667 0.07372,0.756407 l 0.02854,0.726343 h -2.082775 -2.082776 z"
     id="path199" />
  <path
     style="fill:#000000;stroke-width:0.0409207"
     d="m 15.938619,22.817991 v -0.772802 l 0.274159,-0.256462 c 0.729727,-0.682624 1.611471,-1.06272 2.463845,-1.062098 0.930165,6.8e-4 1.921899,0.438009 2.841328,1.252955 l 0.190489,0.168841 v 0.721184 0.721184 h -2.884911 -2.88491 z"
     id="path238" />
  <path
     style="fill:#000000;stroke-width:0.0409207"
     d="m 22.322251,22.915601 v -0.675192 h 2.066496 2.066496 v 0.675192 0.675192 h -2.066496 -2.066496 z"
     id="path277" />
  <text
     xml:space="preserve"
     style="font-style:normal;font-weight:normal;font-size:5.33333px;line-height:1.25;font-family:sans-serif;fill:#000000;fill-opacity:1;stroke:none"
     x="17.282768"
     y="12.328165"
     id="text2320"><tspan
       sodipodi:role="line"
       id="tspan2318"
       x="17.282768"
       y="12.328165" /></text>
  <text
     xml:space="preserve"
     style="font-size:6.21671px;line-height:1.25;font-family:Newsreader;-inkscape-font-specification:Newsreader;fill:#f9f9f9;stroke-width:1.16563"
     x="13.052882"
     y="14.64521"
     id="text8243"><tspan
       sodipodi:role="line"
       id="tspan8241"
       x="13.052882"
       y="14.64521"
       style="font-style:normal;font-variant:normal;font-weight:500;font-stretch:normal;font-family:Newsreader;-inkscape-font-specification:'Newsreader Medium';fill:#f9f9f9;stroke-width:1.16563">F&amp;T</tspan></text>
</svg>
